Coordinates
version=1
nRows=23
nColumns=28
inDegrees=yes

Units are S.I. units (second, meters, Newtons, ...)
Angles are in degrees.

endheader
time	pelvis_tilt	pelvis_list	pelvis_rotation	pelvis_tx	pelvis_ty	pelvis_tz	hip_flexion_r	hip_adduction_r	hip_rotation_r	knee_angle_r	ankle_angle_r	subtalar_angle_r	mtp_angle_r	hip_flexion_l	hip_adduction_l	hip_rotation_l	knee_angle_l	socket_flexion	socket_adduction	socket_rotation	socket_tx	socket_ty	socket_tz	foot_flex	lumbar_extension	lumbar_bending	lumbar_rotation
      0.93750000	      9.04397224	     -3.04302423	     -5.78234109	      0.46852107	      1.03650083	      0.31928827	     -1.56938049	      6.10037877	     -5.93421745	    -20.43256848	      7.12418939	     -3.15919236	     31.05767287	      5.36496609	     -1.61021382	      7.81593064	    -69.88572320	    -11.25193366	     10.75950469	      2.27812507	      0.00000000	      0.03878220	      0.00000000	      0.37084170	    -19.96238286	      1.62959746	     12.57030876
      0.94166667	      9.07010372	     -2.96853644	     -6.06939663	      0.47300351	      1.03744928	      0.31963574	     -2.00784889	      5.93029875	     -5.84556730	    -20.16040935	      7.06533668	     -2.85575282	     31.04430806	      5.79930988	     -1.53775685	      7.91738076	    -69.44884704	    -11.25023405	     10.77525958	      2.14129692	      0.00000000	      0.03835445	      0.00000000	      0.36619419	    -20.02828415	      1.45073659	     12.83247956
      0.94583333	      9.08012668	     -2.89580927	     -6.35837880	      0.47737078	      1.03835452	      0.32003098	     -2.39818984	      5.76988594	     -5.73629141	    -19.93905041	      7.01497104	     -2.58948997	     31.01768005	      6.24691954	     -1.49110489	      8.01857442	    -68.96355139	    -11.24934562	     10.76967181	      2.08409216	      0.00000000	      0.03786108	      0.00000000	      0.31497279	    -20.09325380	      1.27061679	     12.99420443
      0.95000000	      9.09358882	     -2.84202988	     -6.65576492	      0.48181876	      1.03923641	      0.32036308	     -2.82480517	      5.61857574	     -5.64371283	    -19.65206419	      6.93888651	     -2.25517833	     31.02094262	      6.64881123	     -1.41949721	      8.17171454	    -68.42575908	    -11.24623157	     10.78979315	      1.89095173	      0.00000000	      0.03732390	      0.00000000	      0.32493030	    -20.16016262	      1.10492425	     13.26250646
      0.95416667	      9.10878889	     -2.78878973	     -6.95590254	      0.48625125	      1.04007905	      0.32074879	     -3.23094240	      5.46620922	     -5.56627503	    -19.40866805	      6.86540603	     -1.92536449	     31.02974119	      7.03184751	     -1.37490787	      8.29772617	    -67.83243034	    -11.24499012	     10.77965868	      1.75771366	      0.00000000	      0.03669378	      0.00000000	      0.28897332	    -20.23527068	      0.93683173	     13.49971257
      0.95833333	      9.13500709	     -2.74930132	     -7.24285178	      0.49069891	      1.04092620	      0.32096567	     -3.66430004	      5.30535745	     -5.51786919	    -19.12644955	      6.77470661	     -1.53392966	     31.09111217	      7.36904725	     -1.29321184	      8.51880436	    -67.17622838	    -11.23465859	     10.81101592	      1.51476941	      0.00000000	      0.03600461	      0.00000000	      0.29776802	    -20.30391976	      0.79963661	     13.83145834
      0.96250000	      9.13718916	     -2.71549696	     -7.54548294	      0.49499488	      1.04167169	      0.32134839	     -4.00755893	      5.16408496	     -5.45779947	    -18.96722437	      6.70837999	     -1.24638912	     31.10213304	      7.74197161	     -1.28385931	      8.65335416	    -66.49705311	    -11.23365409	     10.76800762	      1.44118381	      0.00000000	      0.03529146	      0.00000000	      0.22475168	    -20.38590552	      0.66165744	     13.98104102
      0.96666667	      9.25126050	     -2.61939104	     -7.62087967	      0.49968774	      1.04242508	      0.32103608	     -4.45702857	      4.80457660	     -6.21320908	    -18.80718939	      6.41527513	      0.07623819	     33.31809237	      7.96168582	     -1.03066730	      9.17321260	    -65.75698220	    -11.21838636	     10.83064440	      1.05146317	      0.00000000	      0.03446987	      0.00000000	      0.25372735	    -20.51289987	      0.51843532	     14.25527793
      0.97083333	      9.21300691	     -2.59648643	     -7.92619761	      0.50398609	      1.04307923	      0.32131117	     -4.78750807	      4.68738090	     -6.03433503	    -18.58198377	      6.34372589	      0.26516506	     33.28574768	      8.37913798	     -1.01101506	      9.34319489	    -65.06299366	    -11.21573680	     10.80369480	      0.86308260	      0.00000000	      0.03391209	      0.00000000	      0.20650564	    -20.54065918	      0.41775451	     14.38204098
      0.97500000	      9.13794530	     -2.62473226	     -8.15586566	      0.50839714	      1.04362061	      0.32149661	     -5.11664738	      4.63396697	     -5.95458020	    -18.30336656	      6.20570081	      0.49299245	     33.31393328	      8.78054713	     -1.01191699	      9.69743348	    -64.29716036	    -11.20554257	     10.81645776	      0.58325493	      0.00000000	      0.03312378	      0.00000000	      0.25261673	    -20.50220770	      0.38583851	     14.66783129
      0.97916667	      9.08011327	     -2.64679418	     -8.43075384	      0.51262235	      1.04413994	      0.32170097	     -5.41325088	      4.55726962	     -5.85780825	    -18.10102234	      6.11399675	      0.74318359	     33.32882118	      9.18518649	     -1.03728957	      9.94076006	    -63.52857618	    -11.19764705	     10.79710635	      0.37109166	      0.00000000	      0.03240155	      0.00000000	      0.18891839	    -20.53132213	      0.31838173	     14.82735760
      0.98333333	      8.99800293	     -2.69694075	     -8.65806030	      0.51695110	      1.04457680	      0.32182764	     -5.70860567	      4.51456363	     -5.80297510	    -17.87377359	      6.00574847	      1.04119374	     33.38193196	      9.58226565	     -1.07405915	     10.29015928	    -62.71735172	    -11.18565375	     10.79653757	      0.11282742	      0.00000000	      0.03158611	      0.00000000	      0.18461009	    -20.51342300	      0.31788893	     15.05730655
      0.98750000	      8.91365041	     -2.75026212	     -8.88467983	      0.52118799	      1.04496544	      0.32189198	     -5.98531171	      4.47110218	     -5.73598847	    -17.67004302	      5.91237272	      1.35867714	     33.44412252	      9.98773162	     -1.11151400	     10.64456412	    -61.89589742	    -11.17225913	     10.78137585	     -0.16524935	      0.00000000	      0.03082781	      0.00000000	      0.15131086	    -20.50369269	      0.32994280	     15.25314713
      0.99166667	      8.80421629	     -2.82247125	     -9.09824928	      0.52546922	      1.04524366	      0.32197497	     -6.22700192	      4.45245679	     -5.69935724	    -17.49930261	      5.82825573	      1.66463982	     33.50898521	     10.39958542	     -1.18169531	     11.01745528	    -61.04819805	    -11.16124950	     10.75793631	     -0.45034891	      0.00000000	      0.02997781	      0.00000000	      0.13968326	    -20.45963404	      0.35307768	     15.42079021
      0.99583333	      8.67499865	     -2.88614276	     -9.29002524	      0.52977276	      1.04546104	      0.32203182	     -6.44801149	      4.43222981	     -5.67393981	    -17.33717459	      5.75710441	      1.85126336	     33.58979136	     10.81248205	     -1.24324223	     11.42772126	    -60.15472654	    -11.14197154	     10.72106554	     -0.71039777	      0.00000000	      0.02909677	      0.00000000	      0.13287803	    -20.39918059	      0.40369788	     15.51141174
      1.00000000	      8.55579461	     -2.96819844	     -9.47969401	      0.53395026	      1.04564371	      0.32202852	     -6.66401590	      4.42995129	     -5.60433780	    -17.19620707	      5.68771247	      2.05333980	     33.65453054	     11.24952674	     -1.32238965	     11.83273818	    -59.30996852	    -11.13429770	     10.66813137	     -1.00324080	      0.00000000	      0.02841225	      0.00000000	      0.12538282	    -20.36729280	      0.46702538	     15.60717415
      1.00416667	      8.35220903	     -3.11942774	     -9.63005787	      0.53822006	      1.04565971	      0.32195978	     -6.83114624	      4.51631982	     -5.59854120	    -16.98844904	      5.51862635	      2.54515902	     33.87133008	     11.73842292	     -1.47126232	     12.34595820	    -58.42831137	    -11.11069286	     10.67295235	     -1.38470978	      0.00000000	      0.02747112	      0.00000000	      0.03554139	    -20.23086935	      0.60996882	     15.88788898
      1.00833333	      8.22489938	     -3.19052257	     -9.82587831	      0.54238880	      1.04572232	      0.32199225	     -7.02045218	      4.50156949	     -5.54892916	    -16.88392271	      5.51773588	      2.69008655	     33.92975937	     12.15139175	     -1.56998565	     12.71295261	    -57.51078698	    -11.09030490	     10.57557007	     -1.61632620	      0.00000000	      0.02674169	      0.00000000	      0.08104257	    -20.19111655	      0.67384581	     15.93092194
      1.01250000	      8.05858967	     -3.31169109	    -10.01426209	      0.54667774	      1.04568443	      0.32203540	     -7.21405888	      4.55634141	     -5.46174162	    -16.72357818	      5.48255623	      2.90336764	     33.98752823	     12.55879947	     -1.71825868	     13.15102184	    -56.54485198	    -11.06302702	     10.50494334	     -1.95375797	      0.00000000	      0.02580443	      0.00000000	      0.01601530	    -20.08703721	      0.79160114	     16.02274184
      1.01666667	      7.87732969	     -3.45645657	    -10.17981898	      0.55087391	      1.04557138	      0.32206279	     -7.38782897	      4.64832615	     -5.38531342	    -16.56091427	      5.43246900	      3.13167707	     34.04213450	     13.00269778	     -1.90371066	     13.59566921	    -55.61758630	    -11.04283137	     10.44877673	     -2.28225458	      0.00000000	      0.02493390	      0.00000000	     -0.02183557	    -20.01566139	      0.92889206	     16.14592902
      1.02083333	      7.66804412	     -3.64115579	    -10.32574292	      0.55502981	      1.04538375	      0.32204676	     -7.54419044	      4.78937037	     -5.30889967	    -16.37883301	      5.37417461	      3.38442652	     34.10110672	     13.47898169	     -2.13597535	     14.06841919	    -54.67825522	    -10.98974376	     10.38453233	     -2.64204058	      0.00000000	      0.02407307	      0.00000000	     -0.08924324	    -19.89059046	      1.10558144	     16.30092640
      1.02500000	      7.46527583	     -3.80227093	    -10.47298662	      0.55922326	      1.04514187	      0.32197678	     -7.68639750	      4.90058240	     -5.24327248	    -16.24126209	      5.34374668	      3.57271627	     34.14459001	     13.93585611	     -2.35076237	     14.51328000	    -53.73077404	    -10.96247042	     10.27611293	     -2.93543845	      0.00000000	      0.02321330	      0.00000000	     -0.08979383	    -19.78637747	      1.29505252	     16.42244342
      1.02916667	      7.24229726	     -3.98635099	    -10.60901295	      0.56344667	      1.04480952	      0.32193612	     -7.82455795	      5.04689672	     -5.16565324	    -16.08056926	      5.31724777	      3.75683971	     34.18167905	     14.40731313	     -2.60080905	     14.95749661	    -52.76610593	    -10.91328866	     10.15768566	     -3.27196014	      0.00000000	      0.02228470	      0.00000000	     -0.13739644	    -19.65278656	      1.50402863	     16.54402725
